<svg xmlns="http://www.w3.org/2000/svg" xmlns:xlink="http://www.w3.org/1999/xlink" width="342.732" height="340.197" viewBox="0 0 342.732 340.197">
  <defs>
    <filter id="Path_69" x="190" y="175" width="152.732" height="165.197" filterUnits="userSpaceOnUse">
      <feOffset dy="-3" input="SourceAlpha"/>
      <feGaussianBlur stdDeviation="2" result="blur"/>
      <feFlood flood-color="#f14336" flood-opacity="0.161"/>
      <feComposite operator="in" in2="blur"/>
      <feComposite in="SourceGraphic"/>
    </filter>
  </defs>
  <g id="Icon" transform="translate(-1710 -483)">
    <g id="Icon_Body" data-name="Icon Body" transform="translate(1710 483)">
      <g id="Group_4" data-name="Group 4" transform="translate(0)">
        <rect id="Rectangle_7" data-name="Rectangle 7" width="337.046" height="337.047" rx="51.4" transform="translate(0)" fill="#fff"/>
        <g transform="matrix(1, 0, 0, 1, 0, 0)" filter="url(#Path_69)">
          <path id="Path_69-2" data-name="Path 69" d="M138.941,269.161c-26.092-69.007,120.568-53.432,137.631-133.321V243.264A45.77,45.77,0,0,1,230.8,289.037H166.227C153.051,286.081,141.829,276.8,138.941,269.161Z" transform="translate(60.16 48.16)" fill="#fff"/>
        </g>
        <g id="logo-3" transform="translate(-241 -117.4)">
          <g id="icon-2" data-name="icon" transform="translate(276 262.456)">
            <path id="Path_3383" d="M0,.227S0,8.741,7.379,8.4L17.6,39.507a3.346,3.346,0,0,0,3.065,1.93h6.244L14.077,2.27,13.282,0Z" fill="#d53327"/>
            <path id="Path_3384" d="M22.839,31.637,25.9,40.152l28.608-.341L61.1,20.852H27.834s-1.135,0-1.135-1.589c0,0,0-1.589,1.135-1.589h34.4L64.5,9.5H15.8l6.244,18.959H49.176a1.707,1.707,0,0,1,1.589,1.135,1.367,1.367,0,0,1-.681,1.816.851.851,0,0,1-.568.114Z" transform="translate(2.137 1.285)" fill="#f14336"/>
            <circle id="Ellipse_102" cx="3.065" cy="3.065" r="3.065" transform="translate(28.041 42.799)" fill="#d53327"/>
            <circle id="Ellipse_103" cx="3.065" cy="3.065" r="3.065" transform="translate(50.518 42.345)" fill="#d53327"/>
            <path id="Path_3385" d="M12.4,0l2.611,7.493h51.2L68.595.114Z" transform="translate(1.677)" fill="#f14336"/>
          </g>
          <g id="Group_1813" data-name="Group 1813" transform="translate(352.402 261.4)">
            <path id="Path_3386" data-name="Path 3386" d="M368.048,268.811a17.611,17.611,0,0,0-4.087-1.135,44.2,44.2,0,0,0-6.017-.341c-1.022,0-2.838,0-5.676.114h-1.589l-.227,13.964c.568,0,1.135.114,1.816.114h3.065c2.838,0,5.109-.114,6.925-.227a20.23,20.23,0,0,0,3.973-.568,13.77,13.77,0,0,1,.568,1.589,5.857,5.857,0,0,1,.227,1.249,2.363,2.363,0,0,1-1.022,2.157,5.747,5.747,0,0,1-3.179.681c-.454,0-1.7,0-3.633-.114s-3.519-.114-5-.114h-3.973c0,2.384,0,4.882-.114,7.606,0,2.725-.114,5.676-.227,8.855h.908c2.725.114,4.768.114,5.9.114a41.791,41.791,0,0,0,5.79-.341,15.171,15.171,0,0,0,4.2-1.249,12.107,12.107,0,0,1,1.022,2.157,4.555,4.555,0,0,1,.341,1.7,2.478,2.478,0,0,1-1.135,2.384,8.741,8.741,0,0,1-4.2.681c-1.022,0-2.5,0-4.541-.114s-3.519-.114-4.541-.114c-2.27,0-4.427,0-6.7.114h-.908a2.22,2.22,0,0,1-1.589-.454,2.5,2.5,0,0,1-.454-1.816c0-.454,0-1.589.114-3.406.341-6.584.454-12.6.454-18.391q0-8.514-.341-13.623a62.984,62.984,0,0,0-.908-7.72h3.973c4.882,0,9.99-.114,15.212-.454a19.7,19.7,0,0,1,2.043-.114,8.249,8.249,0,0,1,3.519.568c.681.341.908,1.022.908,2.043a5.646,5.646,0,0,1-.341,1.816A3.356,3.356,0,0,1,368.048,268.811Z" transform="translate(-343.3 -261.319)" fill="#263344"/>
            <path id="Path_3387" data-name="Path 3387" d="M372.322,301.132a11.039,11.039,0,0,0,2.157.908,6.428,6.428,0,0,0,2.043.341,5.361,5.361,0,0,0,3.633-1.135,3.444,3.444,0,0,0,1.362-2.838,4.417,4.417,0,0,0-.795-2.611,16.309,16.309,0,0,0-2.838-2.952,4.961,4.961,0,0,1-.908-.795c-3.519-2.952-5.336-5.563-5.336-7.833a7.8,7.8,0,0,1,.568-2.725,8.962,8.962,0,0,1,1.589-2.611,13,13,0,0,1,4.655-3.633,14.333,14.333,0,0,1,5.79-1.249,3.9,3.9,0,0,1,2.271.568,1.792,1.792,0,0,1,.795,1.7,2.96,2.96,0,0,1-.341,1.249c-.227.454-.454,1.135-.908,1.93a13.765,13.765,0,0,0-1.589-.568,6.644,6.644,0,0,0-1.476-.227,6.842,6.842,0,0,0-4.2,1.249A3.88,3.88,0,0,0,377.2,283.2c0,1.476,1.476,3.519,4.427,6.017a15.331,15.331,0,0,0,1.7,1.476,11.632,11.632,0,0,1,2.725,3.292,6.841,6.841,0,0,1,.908,3.292,8.5,8.5,0,0,1-3.519,6.811,12.858,12.858,0,0,1-8.514,2.838,4.842,4.842,0,0,1-2.725-.681,2.425,2.425,0,0,1-.908-1.93,6.8,6.8,0,0,1,.227-1.362C371.754,302.381,371.981,301.814,372.322,301.132Z" transform="translate(-339.513 -259.696)" fill="#263344"/>
            <path id="Path_3388" data-name="Path 3388" d="M413.854,299.489a9.137,9.137,0,0,1,1.022,1.589,3.5,3.5,0,0,1,.341,1.476c0,1.135-.795,2.043-2.5,2.838a17.807,17.807,0,0,1-6.7,1.135c-5,0-8.968-1.362-11.807-4.087s-4.314-6.584-4.314-11.352a17.366,17.366,0,0,1,4.314-12.034,14.557,14.557,0,0,1,11.125-4.655,12.319,12.319,0,0,1,8.514,2.952,9.508,9.508,0,0,1,3.292,7.606,5.572,5.572,0,0,1-2.725,5.222c-1.816,1.022-5,1.589-9.423,1.589-1.7,0-3.292-.114-5-.227s-3.292-.341-4.882-.568v.454a10.618,10.618,0,0,0,2.952,7.833c1.93,1.93,4.541,2.838,7.947,2.838a17.236,17.236,0,0,0,4.314-.568A35.588,35.588,0,0,0,413.854,299.489ZM395.463,287c1.362.227,2.952.454,4.655.568s3.519.227,5.449.227c2.611,0,4.427-.227,5.222-.681a2.881,2.881,0,0,0,1.362-2.611,5.561,5.561,0,0,0-2.043-4.541,8.239,8.239,0,0,0-5.449-1.7,8.48,8.48,0,0,0-6.13,2.384A10.53,10.53,0,0,0,395.463,287Z" transform="translate(-336.998 -259.642)" fill="#263344"/>
            <path id="Path_3389" data-name="Path 3389" d="M427.7,306.469a14.511,14.511,0,0,1-2.5,1.022,7.713,7.713,0,0,1-2.157.341,2.213,2.213,0,0,1-2.043-.908,7.078,7.078,0,0,1-.568-3.292c0-2.043.114-5.79.341-11.466s.341-10.217.341-13.85a76.98,76.98,0,0,0-.454-10.217,17.2,17.2,0,0,0-1.362-5.336,13.664,13.664,0,0,1,2.384-1.022,7.713,7.713,0,0,1,2.157-.341,2.4,2.4,0,0,1,2.157.795,6.53,6.53,0,0,1,.568,3.179c0,1.362-.114,4.882-.341,10.671-.227,5.676-.341,10.785-.341,15.1q0,6.982.341,10.217A16.187,16.187,0,0,0,427.7,306.469Z" transform="translate(-333.021 -261.4)" fill="#263344"/>
            <path id="Path_3390" data-name="Path 3390" d="M442.4,306.469a14.511,14.511,0,0,1-2.5,1.022,7.713,7.713,0,0,1-2.157.341,2.214,2.214,0,0,1-2.043-.908,7.079,7.079,0,0,1-.568-3.292c0-2.043.114-5.79.341-11.466.227-5.563.341-10.217.341-13.85a76.987,76.987,0,0,0-.454-10.217A17.2,17.2,0,0,0,434,262.762a13.664,13.664,0,0,1,2.384-1.022,7.713,7.713,0,0,1,2.157-.341,2.4,2.4,0,0,1,2.157.795,6.531,6.531,0,0,1,.568,3.179c0,1.362-.114,4.882-.341,10.671-.227,5.676-.341,10.785-.341,15.1q0,6.982.341,10.217A25.8,25.8,0,0,0,442.4,306.469Z" transform="translate(-331.033 -261.4)" fill="#263344"/>
            <path id="Path_3391" data-name="Path 3391" d="M471.354,299.489a9.137,9.137,0,0,1,1.022,1.589,3.5,3.5,0,0,1,.341,1.476c0,1.135-.795,2.043-2.5,2.838a17.807,17.807,0,0,1-6.7,1.135c-5,0-8.968-1.362-11.807-4.087s-4.314-6.584-4.314-11.352a17.366,17.366,0,0,1,4.314-12.034,14.173,14.173,0,0,1,11.125-4.655,12.319,12.319,0,0,1,8.514,2.952,9.971,9.971,0,0,1,3.406,7.606,5.572,5.572,0,0,1-2.725,5.222c-1.816,1.022-5,1.589-9.423,1.589-1.7,0-3.292-.114-5-.227s-3.292-.341-4.882-.568v.454a10.618,10.618,0,0,0,2.952,7.833c1.93,1.93,4.541,2.838,7.947,2.838a17.236,17.236,0,0,0,4.314-.568C469.083,300.851,470.219,300.284,471.354,299.489ZM452.963,287c1.362.227,2.952.454,4.541.568,1.7.114,3.519.227,5.449.227,2.611,0,4.427-.227,5.222-.681a2.881,2.881,0,0,0,1.362-2.611,5.561,5.561,0,0,0-2.043-4.541,8.239,8.239,0,0,0-5.449-1.7,8.48,8.48,0,0,0-6.13,2.384A11.119,11.119,0,0,0,452.963,287Z" transform="translate(-329.221 -259.642)" fill="#263344"/>
            <path id="Path_3392" data-name="Path 3392" d="M482.6,281.184a25.079,25.079,0,0,1,4.541-5,6.728,6.728,0,0,1,4.2-1.589,4.475,4.475,0,0,1,3.065,1.135,3.815,3.815,0,0,1,1.249,2.725,4.324,4.324,0,0,1-.681,2.157,7.531,7.531,0,0,1-2.157,2.043,5.732,5.732,0,0,0-1.249-2.043,2.578,2.578,0,0,0-1.816-.681,5.219,5.219,0,0,0-3.292,1.589,16.021,16.021,0,0,0-3.292,4.427,23.9,23.9,0,0,0-.227,2.838,24.692,24.692,0,0,0-.114,2.838,50.92,50.92,0,0,0,.568,7.947,17.785,17.785,0,0,0,1.589,5.222,11.583,11.583,0,0,1-2.5,1.022,8.641,8.641,0,0,1-2.384.341,2.527,2.527,0,0,1-2.157-.795,6.318,6.318,0,0,1-.568-3.065c0-.568.114-2.725.341-6.584.227-3.746.341-7.379.341-10.558a40.5,40.5,0,0,0-.341-6.13,14.832,14.832,0,0,0-1.022-3.746c.454-.114.795-.227,1.249-.341a4.657,4.657,0,0,1,1.249-.114,3.211,3.211,0,0,1,3.633,3.633V279.6A4.213,4.213,0,0,0,482.6,281.184Z" transform="translate(-325.258 -259.615)" fill="#263344"/>
            <path id="Path_3393" data-name="Path 3393" d="M497.922,301.132a11.038,11.038,0,0,0,2.157.908,6.428,6.428,0,0,0,2.043.341,5.361,5.361,0,0,0,3.633-1.135,3.444,3.444,0,0,0,1.362-2.838,4.418,4.418,0,0,0-.795-2.611,16.31,16.31,0,0,0-2.838-2.952,4.961,4.961,0,0,1-.908-.795c-3.519-2.952-5.336-5.563-5.336-7.833a7.8,7.8,0,0,1,.568-2.725,8.962,8.962,0,0,1,1.589-2.611,13,13,0,0,1,4.655-3.633,14.333,14.333,0,0,1,5.79-1.249,3.9,3.9,0,0,1,2.271.568,1.792,1.792,0,0,1,.795,1.7,2.96,2.96,0,0,1-.341,1.249c-.227.454-.454,1.135-.908,1.93a13.764,13.764,0,0,0-1.589-.568,6.644,6.644,0,0,0-1.476-.227,6.842,6.842,0,0,0-4.2,1.249A3.88,3.88,0,0,0,502.8,283.2c0,1.476,1.476,3.519,4.427,6.017a15.328,15.328,0,0,0,1.7,1.476,11.633,11.633,0,0,1,2.725,3.292,6.841,6.841,0,0,1,.908,3.292,8.5,8.5,0,0,1-3.519,6.811,12.859,12.859,0,0,1-8.514,2.838,4.842,4.842,0,0,1-2.725-.681,2.425,2.425,0,0,1-.908-1.93,6.793,6.793,0,0,1,.227-1.362C497.354,302.381,497.581,301.814,497.922,301.132Z" transform="translate(-322.526 -259.696)" fill="#263344"/>
          </g>
        </g>
      </g>
    </g>
  </g>
</svg>
