<svg xmlns="http://www.w3.org/2000/svg" width="250" height="80" viewBox="0 0 250 80">
  <g id="E-Seller_Logo" data-name="E-Seller Logo" transform="translate(-66 -626)">
    <rect id="Rectangle_1742" data-name="Rectangle 1742" width="250" height="80" transform="translate(66 626)" fill="none"/>
    <g id="logo-3" transform="translate(-202 382.6)">
      <g id="icon" transform="translate(276 262.33)">
        <path id="Path_3383" d="M0,.2S0,7.7,6.5,7.4l9,27.4a2.947,2.947,0,0,0,2.7,1.7h5.5L12.4,2l-.7-2Z" fill="#d53327"/>
        <path id="Path_3384" d="M22,29l2.7,7.5,25.2-.3,5.8-16.7H26.4s-1,0-1-1.4c0,0,0-1.4,1-1.4H56.7l2-7.2H15.8l5.5,16.7H45.2a1.5,1.5,0,0,1,1.4,1,1.2,1.2,0,0,1-.6,1.6.749.749,0,0,1-.5.1Z" fill="#f14336"/>
        <circle id="Ellipse_102" cx="2.7" cy="2.7" r="2.7" transform="translate(24.7 37.7)" fill="#d53327"/>
        <circle id="Ellipse_103" cx="2.7" cy="2.7" r="2.7" transform="translate(44.5 37.3)" fill="#d53327"/>
        <path id="Path_3385" d="M12.4,0l2.3,6.6H59.8L61.9.1Z" fill="#f14336"/>
      </g>
      <g id="Group_1813" data-name="Group 1813">
        <path id="Path_3386" data-name="Path 3386" d="M365.1,268a15.512,15.512,0,0,0-3.6-1,38.937,38.937,0,0,0-5.3-.3c-.9,0-2.5,0-5,.1h-1.4l-.2,12.3c.5,0,1,.1,1.6.1h2.7c2.5,0,4.5-.1,6.1-.2a17.822,17.822,0,0,0,3.5-.5,12.128,12.128,0,0,1,.5,1.4,5.159,5.159,0,0,1,.2,1.1,2.082,2.082,0,0,1-.9,1.9,5.063,5.063,0,0,1-2.8.6c-.4,0-1.5,0-3.2-.1s-3.1-.1-4.4-.1h-3.5c0,2.1,0,4.3-.1,6.7,0,2.4-.1,5-.2,7.8h.8c2.4.1,4.2.1,5.2.1a36.811,36.811,0,0,0,5.1-.3,13.363,13.363,0,0,0,3.7-1.1,10.664,10.664,0,0,1,.9,1.9,4.012,4.012,0,0,1,.3,1.5,2.183,2.183,0,0,1-1,2.1,7.7,7.7,0,0,1-3.7.6c-.9,0-2.2,0-4-.1s-3.1-.1-4-.1c-2,0-3.9,0-5.9.1h-.8a1.955,1.955,0,0,1-1.4-.4,2.2,2.2,0,0,1-.4-1.6c0-.4,0-1.4.1-3,.3-5.8.4-11.1.4-16.2q0-7.5-.3-12a55.479,55.479,0,0,0-.8-6.8h3.5c4.3,0,8.8-.1,13.4-.4a17.355,17.355,0,0,1,1.8-.1,7.266,7.266,0,0,1,3.1.5c.6.3.8.9.8,1.8a4.973,4.973,0,0,1-.3,1.6A2.956,2.956,0,0,1,365.1,268Z" fill="#263344"/>
        <path id="Path_3387" data-name="Path 3387" d="M372.2,297.9a9.725,9.725,0,0,0,1.9.8,5.663,5.663,0,0,0,1.8.3,4.722,4.722,0,0,0,3.2-1,3.034,3.034,0,0,0,1.2-2.5,3.891,3.891,0,0,0-.7-2.3,14.366,14.366,0,0,0-2.5-2.6,4.369,4.369,0,0,1-.8-.7c-3.1-2.6-4.7-4.9-4.7-6.9a6.874,6.874,0,0,1,.5-2.4,7.894,7.894,0,0,1,1.4-2.3,11.447,11.447,0,0,1,4.1-3.2,12.626,12.626,0,0,1,5.1-1.1,3.439,3.439,0,0,1,2,.5,1.579,1.579,0,0,1,.7,1.5,2.608,2.608,0,0,1-.3,1.1c-.2.4-.4,1-.8,1.7a12.128,12.128,0,0,0-1.4-.5,5.852,5.852,0,0,0-1.3-.2,6.027,6.027,0,0,0-3.7,1.1,3.418,3.418,0,0,0-1.4,2.9c0,1.3,1.3,3.1,3.9,5.3a13.5,13.5,0,0,0,1.5,1.3,10.247,10.247,0,0,1,2.4,2.9,6.026,6.026,0,0,1,.8,2.9,7.488,7.488,0,0,1-3.1,6,11.327,11.327,0,0,1-7.5,2.5,4.265,4.265,0,0,1-2.4-.6,2.136,2.136,0,0,1-.8-1.7,5.987,5.987,0,0,1,.2-1.2C371.7,299,371.9,298.5,372.2,297.9Z" fill="#263344"/>
        <path id="Path_3388" data-name="Path 3388" d="M411,296.5a8.048,8.048,0,0,1,.9,1.4,3.079,3.079,0,0,1,.3,1.3c0,1-.7,1.8-2.2,2.5a15.685,15.685,0,0,1-5.9,1c-4.4,0-7.9-1.2-10.4-3.6s-3.8-5.8-3.8-10a15.3,15.3,0,0,1,3.8-10.6,12.823,12.823,0,0,1,9.8-4.1A10.851,10.851,0,0,1,411,277a8.375,8.375,0,0,1,2.9,6.7,4.908,4.908,0,0,1-2.4,4.6c-1.6.9-4.4,1.4-8.3,1.4-1.5,0-2.9-.1-4.4-.2s-2.9-.3-4.3-.5v.4a8.809,8.809,0,0,0,9.6,9.4,15.182,15.182,0,0,0,3.8-.5A31.345,31.345,0,0,0,411,296.5Zm-16.2-11c1.2.2,2.6.4,4.1.5s3.1.2,4.8.2a11.281,11.281,0,0,0,4.6-.6,2.537,2.537,0,0,0,1.2-2.3,4.9,4.9,0,0,0-1.8-4,7.257,7.257,0,0,0-4.8-1.5,7.47,7.47,0,0,0-5.4,2.1A9.275,9.275,0,0,0,394.8,285.5Z" fill="#263344"/>
        <path id="Path_3389" data-name="Path 3389" d="M426.7,301.1a12.78,12.78,0,0,1-2.2.9,6.8,6.8,0,0,1-1.9.3,1.95,1.95,0,0,1-1.8-.8,6.236,6.236,0,0,1-.5-2.9c0-1.8.1-5.1.3-10.1s.3-9,.3-12.2a67.813,67.813,0,0,0-.4-9,15.147,15.147,0,0,0-1.2-4.7,12.035,12.035,0,0,1,2.1-.9,6.8,6.8,0,0,1,1.9-.3,2.11,2.11,0,0,1,1.9.7,5.752,5.752,0,0,1,.5,2.8c0,1.2-.1,4.3-.3,9.4-.2,5-.3,9.5-.3,13.3q0,6.15.3,9A14.259,14.259,0,0,0,426.7,301.1Z" fill="#263344"/>
        <path id="Path_3390" data-name="Path 3390" d="M441.4,301.1a12.78,12.78,0,0,1-2.2.9,6.8,6.8,0,0,1-1.9.3,1.95,1.95,0,0,1-1.8-.8,6.236,6.236,0,0,1-.5-2.9c0-1.8.1-5.1.3-10.1.2-4.9.3-9,.3-12.2a67.813,67.813,0,0,0-.4-9,15.146,15.146,0,0,0-1.2-4.7,12.035,12.035,0,0,1,2.1-.9,6.8,6.8,0,0,1,1.9-.3,2.11,2.11,0,0,1,1.9.7,5.752,5.752,0,0,1,.5,2.8c0,1.2-.1,4.3-.3,9.4-.2,5-.3,9.5-.3,13.3q0,6.15.3,9A22.73,22.73,0,0,0,441.4,301.1Z" fill="#263344"/>
        <path id="Path_3391" data-name="Path 3391" d="M468.5,296.5a8.048,8.048,0,0,1,.9,1.4,3.079,3.079,0,0,1,.3,1.3c0,1-.7,1.8-2.2,2.5a15.685,15.685,0,0,1-5.9,1c-4.4,0-7.9-1.2-10.4-3.6s-3.8-5.8-3.8-10a15.3,15.3,0,0,1,3.8-10.6,12.484,12.484,0,0,1,9.8-4.1,10.851,10.851,0,0,1,7.5,2.6,8.784,8.784,0,0,1,3,6.7,4.908,4.908,0,0,1-2.4,4.6c-1.6.9-4.4,1.4-8.3,1.4-1.5,0-2.9-.1-4.4-.2s-2.9-.3-4.3-.5v.4a8.809,8.809,0,0,0,9.6,9.4,15.182,15.182,0,0,0,3.8-.5C466.5,297.7,467.5,297.2,468.5,296.5Zm-16.2-11c1.2.2,2.6.4,4,.5,1.5.1,3.1.2,4.8.2a11.281,11.281,0,0,0,4.6-.6,2.537,2.537,0,0,0,1.2-2.3,4.9,4.9,0,0,0-1.8-4,7.257,7.257,0,0,0-4.8-1.5,7.47,7.47,0,0,0-5.4,2.1A9.794,9.794,0,0,0,452.3,285.5Z" fill="#263344"/>
        <path id="Path_3392" data-name="Path 3392" d="M481.9,280.4a22.092,22.092,0,0,1,4-4.4,5.926,5.926,0,0,1,3.7-1.4,3.942,3.942,0,0,1,2.7,1,3.36,3.36,0,0,1,1.1,2.4,3.809,3.809,0,0,1-.6,1.9,6.634,6.634,0,0,1-1.9,1.8,5.05,5.05,0,0,0-1.1-1.8,2.271,2.271,0,0,0-1.6-.6,4.6,4.6,0,0,0-2.9,1.4,14.112,14.112,0,0,0-2.9,3.9,21.051,21.051,0,0,0-.2,2.5,21.749,21.749,0,0,0-.1,2.5,44.855,44.855,0,0,0,.5,7,15.665,15.665,0,0,0,1.4,4.6,10.2,10.2,0,0,1-2.2.9,7.612,7.612,0,0,1-2.1.3,2.226,2.226,0,0,1-1.9-.7,5.565,5.565,0,0,1-.5-2.7c0-.5.1-2.4.3-5.8.2-3.3.3-6.5.3-9.3a35.682,35.682,0,0,0-.3-5.4,13.066,13.066,0,0,0-.9-3.3c.4-.1.7-.2,1.1-.3a4.1,4.1,0,0,1,1.1-.1,2.828,2.828,0,0,1,3.2,3.2v1A3.71,3.71,0,0,0,481.9,280.4Z" fill="#263344"/>
        <path id="Path_3393" data-name="Path 3393" d="M497.8,297.9a9.725,9.725,0,0,0,1.9.8,5.663,5.663,0,0,0,1.8.3,4.722,4.722,0,0,0,3.2-1,3.034,3.034,0,0,0,1.2-2.5,3.891,3.891,0,0,0-.7-2.3,14.366,14.366,0,0,0-2.5-2.6,4.369,4.369,0,0,1-.8-.7c-3.1-2.6-4.7-4.9-4.7-6.9a6.874,6.874,0,0,1,.5-2.4,7.894,7.894,0,0,1,1.4-2.3,11.447,11.447,0,0,1,4.1-3.2,12.626,12.626,0,0,1,5.1-1.1,3.439,3.439,0,0,1,2,.5,1.579,1.579,0,0,1,.7,1.5,2.608,2.608,0,0,1-.3,1.1c-.2.4-.4,1-.8,1.7a12.128,12.128,0,0,0-1.4-.5,5.852,5.852,0,0,0-1.3-.2,6.027,6.027,0,0,0-3.7,1.1,3.418,3.418,0,0,0-1.4,2.9c0,1.3,1.3,3.1,3.9,5.3a13.5,13.5,0,0,0,1.5,1.3,10.247,10.247,0,0,1,2.4,2.9,6.026,6.026,0,0,1,.8,2.9,7.488,7.488,0,0,1-3.1,6,11.327,11.327,0,0,1-7.5,2.5,4.265,4.265,0,0,1-2.4-.6,2.136,2.136,0,0,1-.8-1.7,5.987,5.987,0,0,1,.2-1.2C497.3,299,497.5,298.5,497.8,297.9Z" fill="#263344"/>
      </g>
    </g>
  </g>
</svg>
