<svg id="svg" version="1.1" xmlns="http://www.w3.org/2000/svg" xmlns:xlink="http://www.w3.org/1999/xlink" width="400" height="479.5321637426901" viewBox="0, 0, 400,479.5321637426901"><g id="svgg"><path id="path0" d="M298.642 25.808 C 288.778 39.021,286.124 44.444,289.523 44.444 C 299.841 44.444,338.875 91.283,351.188 118.439 C 424.589 280.321,228.828 438.755,81.041 337.076 C 67.970 328.083,70.444 327.384,57.636 343.687 L 46.745 357.549 53.523 362.375 L 60.301 367.202 66.564 358.991 L 72.826 350.781 79.639 355.632 C 98.097 368.775,143.509 383.573,165.497 383.609 L 175.439 383.626 175.439 395.322 L 175.439 407.018 157.741 407.018 C 135.274 407.018,132.166 408.805,127.654 424.329 C 118.936 454.318,117.925 453.801,185.313 453.801 L 241.036 453.801 243.697 447.960 C 247.149 440.384,239.991 415.277,232.979 410.365 C 229.820 408.153,221.986 407.018,209.878 407.018 L 191.557 407.018 192.269 395.906 L 192.982 384.795 208.939 383.218 C 370.767 367.222,439.298 170.862,324.447 52.257 L 310.493 37.847 315.729 30.494 C 320.747 23.448,320.793 22.950,316.845 18.588 C 310.761 11.865,308.332 12.828,298.642 25.808 M154.562 30.461 C 30.092 56.710,-21.869 197.057,57.332 293.077 C 141.250 394.814,308.960 358.165,344.002 230.432 C 374.543 119.112,267.915 6.558,154.562 30.461 M207.504 45.893 C 212.005 47.100,210.355 48.937,194.668 60.193 L 176.667 73.108 165.400 60.531 C 154.512 48.375,154.315 47.902,159.523 46.432 C 166.463 44.473,200.770 44.088,207.504 45.893 M149.977 67.335 L 162.944 83.208 140.262 107.110 L 117.580 131.012 93.923 113.710 L 70.265 96.408 81.332 85.675 C 95.169 72.254,100.090 68.811,119.190 59.190 C 138.189 49.620,134.765 48.714,149.977 67.335 M252.880 60.944 C 263.067 66.086,266.405 68.872,264.796 70.886 C 263.567 72.425,254.970 83.684,245.690 95.906 C 236.411 108.129,228.046 118.418,227.102 118.771 C 224.100 119.895,186.680 86.068,188.704 84.060 C 193.498 79.302,233.060 53.892,235.739 53.849 C 237.384 53.823,245.098 57.016,252.880 60.944 M293.222 91.101 C 299.174 97.464,303.612 104.043,303.083 105.721 C 293.593 135.863,286.982 154.566,285.492 155.486 C 283.839 156.508,247.170 135.804,242.645 131.294 C 240.724 129.379,277.115 79.532,280.433 79.532 C 281.515 79.532,287.270 84.738,293.222 91.101 M202.104 120.524 L 217.072 133.747 200.723 155.178 C 180.690 181.437,185.569 180.802,158.075 160.725 C 129.055 139.532,129.368 142.419,153.359 117.209 L 173.614 95.924 180.375 101.613 C 184.094 104.742,193.872 113.252,202.104 120.524 M82.711 125.474 C 94.471 134.017,105.027 141.845,106.168 142.870 C 107.322 143.906,103.050 152.847,96.547 163.010 C 90.114 173.062,82.619 185.685,79.890 191.061 L 74.929 200.836 55.593 192.994 L 36.257 185.152 36.960 175.032 C 38.194 157.239,55.100 109.942,60.225 109.942 C 60.832 109.942,70.951 116.931,82.711 125.474 M322.659 136.983 C 327.814 150.762,332.012 166.994,332.107 173.520 C 332.156 176.937,307.274 169.750,302.134 164.863 C 300.784 163.580,314.316 123.977,316.104 123.977 C 317.032 123.977,319.982 129.829,322.659 136.983 M261.392 162.012 C 273.316 168.991,277.962 172.970,277.067 175.439 C 274.781 181.747,257.006 212.000,251.607 218.772 L 246.333 225.386 221.411 207.224 C 204.566 194.948,197.058 188.111,198.245 186.128 C 199.210 184.515,206.779 174.104,215.063 162.994 L 230.127 142.792 237.286 147.443 C 241.223 150.001,252.071 156.557,261.392 162.012 M150.363 175.180 L 173.242 191.956 157.553 212.352 C 148.924 223.570,141.118 233.628,140.206 234.703 C 139.294 235.777,128.925 230.856,117.164 223.765 C 105.403 216.675,94.514 210.452,92.966 209.936 C 89.170 208.671,96.119 193.403,110.617 171.154 C 118.666 158.802,122.616 154.588,124.652 156.183 C 126.210 157.404,137.781 165.953,150.363 175.180 M313.836 187.431 C 337.526 196.884,338.367 207.908,318.680 250.877 C 308.640 272.790,311.158 272.687,283.108 252.334 L 260.132 235.663 271.001 218.967 C 276.980 209.784,284.501 197.286,287.715 191.194 C 290.929 185.102,293.998 180.117,294.534 180.117 C 295.070 180.117,303.756 183.408,313.836 187.431 M213.522 221.053 C 240.782 240.823,240.579 236.728,215.570 262.510 L 194.884 283.836 173.563 265.512 C 160.336 254.144,152.872 246.141,153.899 244.431 C 162.504 230.111,186.098 201.694,188.271 203.032 C 189.741 203.938,201.104 212.047,213.522 221.053 M53.801 209.452 C 68.723 215.288,68.540 214.518,60.382 237.166 L 52.964 257.761 48.702 249.452 C 39.981 232.453,34.323 201.773,40.351 204.171 C 41.959 204.811,48.012 207.187,53.801 209.452 M101.448 233.146 C 109.336 237.867,118.669 243.717,122.187 246.146 L 128.585 250.561 109.470 275.573 C 98.957 289.330,90.006 301.043,89.579 301.602 C 88.570 302.925,70.427 285.347,67.747 280.451 C 64.515 274.545,79.700 224.561,84.727 224.561 C 86.036 224.561,93.561 228.424,101.448 233.146 M274.585 265.960 C 286.312 274.577,296.194 281.794,296.546 281.999 C 301.688 284.990,272.774 309.190,250.944 320.167 C 233.292 329.044,230.879 329.166,225.820 321.445 C 223.643 318.122,218.134 311.277,213.577 306.234 L 205.292 297.064 227.208 273.854 C 253.441 246.071,248.614 246.876,274.585 265.960 M165.190 279.513 C 173.400 286.766,180.117 293.532,180.117 294.549 C 180.117 296.652,158.458 312.048,142.641 321.190 L 132.065 327.302 118.213 320.315 C 110.594 316.472,103.957 312.924,103.463 312.430 C 102.969 311.936,111.257 299.932,121.881 285.755 C 143.931 256.330,139.646 256.947,165.190 279.513 M203.272 319.255 C 208.548 325.665,212.865 331.564,212.865 332.366 C 212.865 334.689,182.514 336.330,168.536 334.763 L 155.785 333.333 174.263 319.958 C 184.426 312.601,192.952 306.811,193.210 307.092 C 193.467 307.373,197.995 312.846,203.272 319.255 M225.426 428.655 C 226.202 431.550,226.851 434.708,226.869 435.673 C 226.886 436.637,207.482 437.427,183.747 437.427 L 140.594 437.427 143.041 430.409 L 145.487 423.392 184.751 423.392 C 223.493 423.392,224.035 423.462,225.426 428.655 " stroke="none" fill="#000000" fill-rule="evenodd"></path></g></svg>