<svg xmlns="http://www.w3.org/2000/svg" width="22.896" height="22.896" viewBox="0 0 22.896 22.896"><defs><style>.a{fill:none;}.b{fill:#00b55b;}</style></defs><path class="a" d="M0,0H22.9V22.9H0Z"/><path class="b" d="M3.908,15.356V3.908H2V2H4.862a.954.954,0,0,1,.954.954V14.4H17.682L19.59,6.77H7.724V4.862H20.813a.954.954,0,0,1,.925,1.186l-2.385,9.54a.954.954,0,0,1-.925.722H4.862A.954.954,0,0,1,3.908,15.356Zm1.908,6.678a1.908,1.908,0,1,1,1.908-1.908A1.908,1.908,0,0,1,5.816,22.034Zm11.448,0a1.908,1.908,0,1,1,1.908-1.908A1.908,1.908,0,0,1,17.264,22.034Z" transform="translate(-0.092 -0.092)"/></svg>