<svg xmlns="http://www.w3.org/2000/svg" width="31.475" height="21.941" viewBox="0 0 31.475 21.941"><defs><style>.a{fill:#d60a2e;}.b{fill:#fed953;}</style></defs><g transform="translate(0 0)"><path class="a" d="M12,27.751H43.475V49.692H12Z" transform="translate(-12 -27.751)"/><g transform="translate(1.675 1.657)"><path class="b" d="M21.1,40.976l1.1,2.235,2.467.358-1.785,1.74.422,2.457L21.1,46.606,18.9,47.766l.422-2.457-1.785-1.74L20,43.211Z" transform="translate(-17.534 -38.63)"/><path class="b" d="M47.633,55.152l.441.893.986.143-.713.7.168.981-.882-.463-.882.463.168-.981-.713-.7.986-.143Z" transform="translate(-37.529 -48.516)"/><path class="b" d="M47.4,42.248l.806.586.939-.331-.308.947.606.791h-1l-.565.82-.307-.948-.955-.284.806-.585Z" transform="translate(-37.814 -39.517)"/><path class="b" d="M39.532,33.261l-.188.978.7.71-.988.123-.459.884-.422-.9-.983-.163.727-.681-.149-.985.872.481Z" transform="translate(-31.241 -33.225)"/><path class="b" d="M39.532,66.374l-.188.978.7.709-.988.123-.459.884-.422-.9L37.19,68l.727-.681-.149-.985.872.481Z" transform="translate(-31.241 -56.316)"/></g></g></svg>