<svg xmlns="http://www.w3.org/2000/svg" width="20.825" height="12.344" viewBox="0 0 20.825 12.344"><defs><style>.a{fill:#4d4d4d;stroke:#707070;stroke-width:0.15px;}</style></defs><g transform="translate(0.075 -104.925)"><path class="a" d="M175.961,105h-10a1.508,1.508,0,0,0-1.5,1.335l-1.058,9.178a1.509,1.509,0,0,0,1.5,1.681h10a1.508,1.508,0,0,0,1.5-1.335l1.058-9.178A1.509,1.509,0,0,0,175.961,105Zm-3.8,1.211-.3,2.168H169.6l.3-2.168Zm4.094.331L175.2,115.72a.3.3,0,0,1-.294.263h-10a.3.3,0,0,1-.294-.331l1.058-9.178a.3.3,0,0,1,.294-.263h2.72L168.3,108.9a.606.606,0,0,0,.6.69h3.482a.606.606,0,0,0,.6-.521l.4-2.858h2.577A.3.3,0,0,1,176.255,106.542Z" transform="translate(-156.795)"/><path class="a" d="M4.845,305.107H.606a.606.606,0,0,0,0,1.211H4.845a.606.606,0,0,0,0-1.211Z" transform="translate(0 -192.027)"/><path class="a" d="M21.138,241.107H17.585a.606.606,0,1,0,0,1.211h3.553a.606.606,0,1,0,0-1.211Z" transform="translate(-16.293 -130.611)"/><path class="a" d="M36.493,177.107H33.586a.606.606,0,1,0,0,1.211h2.907a.606.606,0,1,0,0-1.211Z" transform="translate(-31.648 -69.195)"/></g></svg>