<svg xmlns="http://www.w3.org/2000/svg" width="18" height="18" viewBox="0 0 18 18"><defs><style>.a{fill:none;}.b{fill:#4d4d4d;}</style></defs><path class="a" d="M0,0H18V18H0Z"/><path class="b" d="M4.528,3.717V10.64a3,3,0,0,0,1.36,2.509l3.987,2.623,3.987-2.623a3,3,0,0,0,1.36-2.508V3.717L9.875,2.545ZM3.6,2.376,9.875,1l6.277,1.376a.756.756,0,0,1,.6.736V10.64A4.507,4.507,0,0,1,14.709,14.4l-4.834,3.18L5.041,14.4A4.507,4.507,0,0,1,3,10.641V3.112a.756.756,0,0,1,.6-.736Zm6.277,8.046L7.63,11.587l.429-2.466L6.243,7.373l2.51-.36L9.875,4.769,11,7.013l2.509.36L11.692,9.121l.428,2.466Z" transform="translate(-0.875 -0.292)"/></svg>